/* XPM */
static char * C:\Users\muham\OneDrive\Documents\collect_xpm[] = {
"32 32 15 1",
" 	c #EDBE52",
".	c #DAAE48",
"+	c #947D47",
"@	c #2F2F2E",
"#	c #844F28",
"$	c #7EB8D7",
"%	c #B26F3E",
"&	c #68A7C8",
"*	c #5D8FA9",
"=	c #903330",
"-	c #9D7F8C",
";	c #A83431",
">	c #842D2C",
",	c #992D2B",
"'	c #967B89",
"                                ",
"                    .           ",
"                                ",
"                         .      ",
"              ++                ",
"     ..       ++                ",
"     ..                         ",
"                                ",
"                                ",
"        .                       ",
"               @@               ",
"              @##@              ",
"             @$%%$@             ",
"             @&$$&@             ",
"             @&$$&@             ",
"            @*=--;&@            ",
"           @*==;;-;&@           ",
"           @*>=;;-,&@           ",
"           @*>>,,',&@           ",
"           @**>,,'&&@           ",
"            @**&&&&@  +         ",
"             @@@@@@             ",
"           +                    ",
"                                ",
"                                ",
"                                ",
"                              + ",
"                                ",
"                                ",
"                                ",
"                                ",
"                                "};
