/* XPM */
static char * C:\Users\muham\OneDrive\Documents\wall_xpm[] = {
"32 32 2 1",
" 	c #8AA6D1",
".	c #96B5E3",
"  ..............................",
"  ..............................",
"  ..............................",
"  ..............................",
"  ..............................",
"  ..............................",
"  ..............................",
"  ..............................",
"  ..............................",
"  ..............................",
"  ..............................",
"  ..............................",
"  ..............................",
"  ..............................",
"  ..............................",
"  ..............................",
"  ..............................",
"  ..............................",
"  ..............................",
"  ..............................",
"  ..............................",
"  ..............................",
"  ..............................",
"  ..............................",
"  ..............................",
"  ..............................",
"  ..............................",
"  ..............................",
"  ..............................",
"  ..............................",
"  ..............................",
"  .............................."};
