/* XPM */
static char * \\wsl$\Ubuntu\home\azfarjef\42KL\so_long\asset\player_xpm[] = {
"32 32 8 1",
" 	c #EDBE52",
".	c #A00C32",
"+	c #DAAE48",
"@	c #C3C3C3",
"#	c #0E0E0E",
"$	c #6C0E35",
"%	c #808080",
"&	c #947D47",
"                                ",
"           ...........          ",
"           ...........          ",
"           ...........   +      ",
"           ...........          ",
"     ++ @@   ..@@@@...          ",
"     ++ @@   ..@@@@...          ",
"          @....####...          ",
"          @....####...          ",
"        + ..............        ",
"          ..............        ",
"        ..###...........        ",
"      $$#######...........      ",
"      $$#######...........      ",
"      $$##$######.........      ",
"      $$##$######.........      ",
"      $$##$$#####.........      ",
"      $$%%$$$%%%%.........      ",
"      $$%%$$$%%%%.........      ",
"      $$##$$$####.........      ",
"      $$##$$$####.........      ",
"      $$$$$$$######.......      ",
"      $$$$$$$######.......      ",
"      $$$$$$$######.......      ",
"      $$$$$$$######.......      ",
"        $$$$$######.....        ",
"        $$$$$######.....      & ",
"            #######             ",
"            #######             ",
"                   ###          ",
"                   ###          ",
"                                "};
