/* XPM */
static char * C:\Users\muham\OneDrive\Documents\player_xpm[] = {
"32 32 8 1",
" 	c #EDBE52",
".	c #DAAE48",
"+	c #947D47",
"@	c #A00C32",
"#	c #C3C3C3",
"$	c #0E0E0E",
"%	c #6C0E35",
"&	c #808080",
"                                ",
"                    .           ",
"                                ",
"                         .      ",
"              ++                ",
"     ..       ++                ",
"     ..                         ",
"                                ",
"                                ",
"        .     @@@@@             ",
"              @@##@             ",
"            #  @$$@             ",
"             #@@@@@             ",
"             @@@@@@@            ",
"            @$$@@@@@            ",
"           %$$$$@@@@            ",
"           %$%$$$@@@            ",
"           %&%&&&@@@@           ",
"           %$%$$$@@@@           ",
"          %%%%$$$@@@@           ",
"          %%%%$$$@@@@ +         ",
"           %%$$$$$@@            ",
"           +$%%%%$@             ",
"                                ",
"                                ",
"                                ",
"                              + ",
"                                ",
"                                ",
"                                ",
"                                ",
"                                "};
