/* XPM */
static char * C:\Users\muham\OneDrive\Documents\exit_xpm[] = {
"32 32 3 1",
" 	c #645045",
".	c #4F4038",
"+	c #54443B",
"                                ",
".                               ",
"                                ",
"                                ",
"                                ",
"                                ",
"                                ",
"                                ",
"                                ",
"                         ...... ",
"                          +++   ",
"                                ",
"                                ",
"                                ",
"                                ",
"                                ",
"                                ",
"                    ++++        ",
"                                ",
"        .......                 ",
"      ..+++++++                 ",
"      +++++                     ",
"                                ",
"                                ",
"                                ",
"                                ",
"                  .....         ",
"               ...+++++.        ",
"                 +++++++        ",
"                                ",
"                                ",
"                                "};
